<svg width="198px" height="133px" xmlns="http://www.w3.org/2000/svg" xmlns:xlink="http://www.w3.org/1999/xlink">
 <!-- Generator: Sketch 39.1 (31720) - http://www.bohemiancoding.com/sketch -->
 <title>Group 2</title>
 <desc>Created with Sketch.</desc>
 <defs>
  <polygon points="81.3624165 28.6446461 81.3624165 0.14497383 0.000100145138 0.14497383 0.000100145138 28.6446461 81.3624165 28.6446461" id="path-1"/>
 </defs>
 <g>
  <title>background</title>
  <rect fill="none" id="canvas_background" height="402" width="582" y="-1" x="-1"/>
 </g>
 <g>
  <title>Layer 1</title>
  <g fill-rule="evenodd" fill="none" id="Page-1">
   <g id="Sign-In">
    <g id="Group-2">
     <g id="Group">
      <g id="Group-3">
       <mask fill="#e82d50" transform="translate(0.6908559799194336,32.93699264526367) translate(59,0) translate(519,201) translate(-519,-201) " id="mask-2">
        <use fill="#e82d50" id="svg_1" xlink:href="#path-1"/>
       </mask>
       <g id="Clip-2"/>
       <path mask="url(#mask-2)" fill="#e82d50" fill-opacity="0.9" id="Fill-1" d="m136.046116,61.581643l-71.3479,0c-2.75399,0 -5.00726,-2.25271 -5.00726,-5.00601l0,-18.48766c0,-2.75331 2.25327,-5.00601 5.00726,-5.00601l71.3479,0c2.75399,0 5.00726,2.2527 5.00726,5.00601l0,18.48766c0,2.7533 -2.25327,5.00601 -5.00726,5.00601"/>
      </g>
      <path fill="#e82d50" fill-opacity="0.6" id="Fill-4" d="m85.81662,82.99702l0,-49.8668l29.11119,0l0,49.8668c0,2.7533 -2.25327,5.006 -5.00726,5.006l-19.09667,0c-2.75399,0 -5.00726,-2.2527 -5.00726,-5.006"/>
      <path fill="#e82d50" id="Fill-6" d="m85.95787,14.25219c0,-7.87144 6.38275,-14.25209 14.25566,-14.25209c7.87342,0 14.25567,6.38065 14.25567,14.25209c0,7.87144 -6.38225,14.25209 -14.25567,14.25209c-7.87291,0 -14.25566,-6.38065 -14.25566,-14.25209"/>
     </g>
     <path fill="#e82d50" id="AcmeHealth" d="m15.56864,131.62785l3.729,0l-7.458,-23.1l-3.729,0l-7.458,23.1l3.762,0l1.914,-6.402l7.326,0l1.914,6.402zm-6.204,-16.5c0.297,-0.99 0.561,-2.112 0.627,-2.607c0.066,0.429 0.297,1.518 0.627,2.541l2.079,6.996l-5.412,0l2.079,-6.93zm27.783,3.201c-1.485,-1.617 -3.465,-2.64 -5.841,-2.64c-4.521,0 -7.92,3.597 -7.92,8.118c0,4.521 3.399,8.118 7.953,8.118c2.607,0 4.653,-1.089 6.171,-3.135l-2.508,-1.98c-0.825,1.188 -2.079,1.98 -3.663,1.98c-2.64,0 -4.521,-2.013 -4.521,-4.983c0,-2.871 1.815,-4.983 4.521,-4.983c1.518,0 2.574,0.693 3.498,1.716c0.759,-0.726 1.551,-1.452 2.31,-2.211l0,0zm10.161,13.299l0,-9.372c0.066,-2.31 1.551,-3.63 3.267,-3.63c1.683,0 2.805,1.155 2.805,3.003l0,9.999l3.399,0l0,-9.207c0,-2.442 1.485,-3.861 3.234,-3.861c1.749,0 2.871,1.254 2.871,3.135l0,9.933l3.399,0l0,-10.098c0,-3.861 -2.145,-5.841 -5.181,-5.841c-2.178,0 -3.927,1.056 -4.95,2.739c-0.792,-1.716 -2.277,-2.739 -4.488,-2.739c-1.848,0 -3.432,0.924 -4.455,2.475c0.066,-0.396 0.099,-0.825 0.099,-1.188l0,-0.924l-3.399,0l0,15.576l3.399,0zm33.294,0.33c3.564,0 5.346,-1.32 6.897,-3.366l-2.343,-1.782c-0.858,1.254 -2.31,2.277 -4.422,2.277c-2.277,0 -4.323,-1.386 -4.653,-4.422l11.616,0l0,-0.858c0,-4.422 -2.244,-8.118 -7.293,-8.118c-4.719,0 -7.755,3.663 -7.755,8.118c0,4.653 3.234,8.151 7.953,8.151l0,0zm-0.231,-13.398c2.145,0 3.597,1.452 3.894,3.795l-8.085,0c0.462,-2.508 2.178,-3.795 4.191,-3.795l0,0zm29.631,13.068l0,-23.1l-3.531,0l0,8.481l-8.448,0l0,-8.481l-3.531,0l0,23.1l3.531,0l0,-11.352l8.448,0l0,11.352l3.531,0zm14.748,0.33c3.564,0 5.346,-1.32 6.897,-3.366l-2.343,-1.782c-0.858,1.254 -2.31,2.277 -4.422,2.277c-2.277,0 -4.323,-1.386 -4.653,-4.422l11.616,0l0,-0.858c0,-4.422 -2.244,-8.118 -7.293,-8.118c-4.719,0 -7.755,3.663 -7.755,8.118c0,4.653 3.234,8.151 7.953,8.151l0,0zm-0.231,-13.398c2.145,0 3.597,1.452 3.894,3.795l-8.085,0c0.462,-2.508 2.178,-3.795 4.191,-3.795l0,0zm28.707,13.068l0,-3.168l-0.462,0c-0.594,0 -0.957,-0.363 -0.957,-0.924l0,-5.709c0,-3.729 -2.574,-6.27 -6.765,-6.27c-4.323,0 -6.138,3.069 -6.138,3.069l2.475,1.881c0.792,-1.155 2.145,-1.848 3.531,-1.848c2.145,0 3.531,1.32 3.531,3.267l0,0.792c-0.825,-0.165 -2.277,-0.495 -3.96,-0.495c-4.719,0 -6.996,2.343 -6.996,5.148c0,2.343 1.782,4.587 5.313,4.587c3.102,0 5.016,-1.551 6.006,-3.069c0.462,1.617 1.485,2.739 3.465,2.739l0.957,0zm-9.669,-2.475c-1.716,0 -2.541,-0.891 -2.541,-1.98c0,-1.485 1.584,-2.541 4.026,-2.541c1.254,0 2.607,0.231 3.366,0.396c-0.363,2.046 -2.013,4.125 -4.851,4.125l0,0zm19.203,2.475l0,-24.75l-3.498,0l0,24.75l3.498,0zm6.267,-15.576l0,3.135l2.442,0l0,12.441l3.465,0l0,-12.441l2.442,0l0,-3.135l-2.442,0l0,-6.072l-3.465,0l0,6.072l-2.442,0zm18.015,15.576l0,-8.844c0.132,-2.343 1.848,-4.224 3.927,-4.224c2.112,0 3.63,1.452 3.63,4.191l0,8.877l3.432,0l0,-9.009c0,-4.455 -2.475,-6.93 -6.039,-6.93c-2.211,0 -3.96,1.155 -5.049,2.706c0.066,-0.462 0.099,-0.924 0.099,-1.287l0,-10.23l-3.399,0l0,24.75l3.399,0z"/>
    </g>
   </g>
  </g>
 </g>
</svg>